#tb 0: 1/25
#media_type 0: video
#codec_id 0: rawvideo
#dimensions 0: 1280x720
#sar 0: 0/1
0,          0,          0,        1,  5529600, 0xdb9b6d0d
0,          1,          1,        1,  5529600, 0x960e474e
0,          2,          2,        1,  5529600, 0xf1cb1670
0,          3,          3,        1,  5529600, 0xc4fa3d5e
0,          4,          4,        1,  5529600, 0x2912fa02
0,          5,          5,        1,  5529600, 0xb9acfc3e
0,          6,          6,        1,  5529600, 0xea39f561
0,          7,          7,        1,  5529600, 0xeff704c9
0,          8,          8,        1,  5529600, 0xb972e1d6
0,          9,          9,        1,  5529600, 0x0cf45b11
0,         10,         10,        1,  5529600, 0xee7b876f
0,         11,         11,        1,  5529600, 0xbe7d6952
0,         12,         12,        1,  5529600, 0x809d6cd4
0,         13,         13,        1,  5529600, 0x5b4502e1
0,         14,         14,        1,  5529600, 0xf23878bd
0,         15,         15,        1,  5529600, 0x25eb4d6d
0,         16,         16,        1,  5529600, 0x7fcfaeed
0,         17,         17,        1,  5529600, 0x4e2c9003
0,         18,         18,        1,  5529600, 0x69e6385b
0,         19,         19,        1,  5529600, 0xb8681116
0,         20,         20,        1,  5529600, 0x90b890ca
0,         21,         21,        1,  5529600, 0x94ec15bb
0,         22,         22,        1,  5529600, 0x0dcaf2e5
0,         23,         23,        1,  5529600, 0x52897d14
0,         24,         24,        1,  5529600, 0x578f7356
0,         25,         25,        1,  5529600, 0x90113d89
0,         26,         26,        1,  5529600, 0x2b09a1de
0,         27,         27,        1,  5529600, 0xc3036365
0,         28,         28,        1,  5529600, 0xb13cb584
0,         29,         29,        1,  5529600, 0x1ea6ae1a
0,         30,         30,        1,  5529600, 0xfd408ed8
0,         31,         31,        1,  5529600, 0x36d1bdae
0,         32,         32,        1,  5529600, 0xe7dc95a4
0,         33,         33,        1,  5529600, 0x8f9ac8b9
0,         34,         34,        1,  5529600, 0x6af3a821
0,         35,         35,        1,  5529600, 0xc72ac000
0,         36,         36,        1,  5529600, 0x0fab2899
0,         37,         37,        1,  5529600, 0x3ea41597
0,         38,         38,        1,  5529600, 0x5535be74
0,         39,         39,        1,  5529600, 0x02ba563e
0,         40,         40,        1,  5529600, 0xdfbfa9a5
0,         41,         41,        1,  5529600, 0x9bed96fa
0,         42,         42,        1,  5529600, 0x3a9df1e9
0,         43,         43,        1,  5529600, 0x3c84b16d
0,         44,         44,        1,  5529600, 0xb10a26c8
0,         45,         45,        1,  5529600, 0x5a30baee
0,         46,         46,        1,  5529600, 0xaa55eba4
0,         47,         47,        1,  5529600, 0x1873de87
0,         48,         48,        1,  5529600, 0x3ad98e8e
0,         49,         49,        1,  5529600, 0xf1a58485
0,         50,         50,        1,  5529600, 0x43e678df
0,         51,         51,        1,  5529600, 0xf6f10a9e
0,         52,         52,        1,  5529600, 0xe89bd6c0
0,         53,         53,        1,  5529600, 0x0b793b1b
0,         54,         54,        1,  5529600, 0xef4898d3
0,         55,         55,        1,  5529600, 0x5b0f10d0
0,         56,         56,        1,  5529600, 0xec2cc417
0,         57,         57,        1,  5529600, 0x887759fe
0,         58,         58,        1,  5529600, 0x47a45789
0,         59,         59,        1,  5529600, 0xa0f6933b
0,         60,         60,        1,  5529600, 0x77290b7a
0,         61,         61,        1,  5529600, 0xbfa5a26d
0,         62,         62,        1,  5529600, 0xee99b0d5
0,         63,         63,        1,  5529600, 0x0fdd7e97
0,         64,         64,        1,  5529600, 0x3173af66
